PathFileType	4	(X/Y/Z)	pose_F01_0-76.trc
DataRate	CameraRate	NumFrames	NumMarkers	Units	OrigDataRate	OrigDataStartFrame	OrigNumFrames
30	30	12	21	m	30	38	76
Frame#	Time	CHip			RHip			RKnee			RAnkle			RBigToe			RSmallToe			RHeel			LHip			LKnee			LAnkle			LBigToe			LSmallToe			LHeel			Neck			Nose			RShoulder			RElbow			RWrist			LShoulder			LElbow			LWrist			
		X1	Y1	Z1	X2	Y2	Z2	X3	Y3	Z3	X4	Y4	Z4	X5	Y5	Z5	X6	Y6	Z6	X7	Y7	Z7	X8	Y8	Z8	X9	Y9	Z9	X10	Y10	Z10	X11	Y11	Z11	X12	Y12	Z12	X13	Y13	Z13	X14	Y14	Z14	X15	Y15	Z15	X16	Y16	Z16	X17	Y17	Z17	X18	Y18	Z18	X19	Y19	Z19	X20	Y20	Z20	X21	Y21	Z21	
38	1.2666666666666666	-0.220090636656412	1.8329216316665153	-0.4121702400079742	-0.23427755216779333	1.8292085390892279	-0.3726566723347332																-0.20325754429275641	1.8377005654094138	-0.4451249081926369	-0.20589380210417654	1.719729034064763	-0.4414039843490773	-0.208282357781636	1.5851157456932816	-0.5464621006477501	-0.1928781326095453	1.5833612364396699	-0.5315549901396907	-0.18913842744403092	1.5918248455800341	-0.5316686431141493	-0.20265804162838272	1.572703508104972	-0.5463082002420341	-0.21939619716086936	1.9854792224939473	-0.4097727009832718	-0.21349819835936318	2.0379351567974573	-0.48867675378628717	-2.0424363756483492	1.9019695412971565	1.6941633102209266	-0.24129347910598795	1.947262842780308	-0.479330108613065	-0.22666322512344197	1.9929821600945952	-0.503022490671083	-0.20127209015546502	1.986740784815713	-0.45335146482720795	-0.18700170322991744	1.9147612316669669	-0.4158670286764098	-0.18373129866953689	1.8538397409650553	-0.5056703364784444
39	1.3	-0.22237542765234813	1.836789441579476	-0.4048192278499596	-0.23563526121394784	1.8314850348941538	-0.3708393298009072																-0.20489447447843256	1.839786652349717	-0.4339886274909684	-0.20828654058717994	1.7219906224271004	-0.4411863233150825	-0.208282357781636	1.5851157456932816	-0.5464621006477501	-0.1928781326095453	1.5833612364396699	-0.5315549901396907	-0.18913842744403092	1.5918248455800341	-0.5316686431141493	-0.20265804162838272	1.572703508104972	-0.5463082002420341	-0.2210558590469944	1.9864850044803029	-0.3989062609748238	-0.2114482261480194	2.039355339395368	-0.49068581480074075	-0.242860956492135	1.9887199383023615	-0.37795499462936166	-0.2369582234714345	1.9532660970563562	-0.49305925245325977	-0.21834382343720934	1.9996742406357522	-0.5128653392922493	-0.1962886372663577	1.984973222015147	-0.41936845578484	-0.18687038542414172	1.914526579989318	-0.3950778089964843	-0.1860241476296061	1.8514587568669407	-0.49600295352184615
40	1.3333333333333333	-0.2208484586466569	1.8384729046182027	-0.39271415023486966	-0.23820551852082947	1.8334787693056267	-0.37226620236537405																-0.20544159975717738	1.8434281362802294	-0.41959756176430524	-0.21067927907018336	1.7242522107894376	-0.4409686622810877	-0.208282357781636	1.5851157456932816	-0.5464621006477501	-0.1928781326095453	1.5833612364396699	-0.5315549901396907	-0.18913842744403092	1.5918248455800341	-0.5316686431141493	-0.20265804162838272	1.572703508104972	-0.5463082002420341	-0.22481859819947378	1.988551937036429	-0.39504398318418477	-0.21134554641723255	2.0396725876339303	-0.49064123281392696	-0.24309217587310344	1.9905396492345675	-0.3871749133283076	-0.23392515769083996	1.951721784645075	-0.5180013933682074	-0.21456085553742682	2.003085837285199	-0.5186525578170053	-0.19973578651029666	1.9871289963995218	-0.39742059936074775	-0.186739067618366	1.9142919283116693	-0.3742885893165588	-0.18451839736683187	1.8639516768074964	-0.4901688277763225
41	1.3666666666666667	-0.22095891805887555	1.837888296302648	-0.383699191519486	-0.24062358533902828	1.8342995362353738	-0.37905601562947455																-0.20345753331759306	1.8412044527984193	-0.39488519042314013	-0.20751120712220383	1.7248229578032304	-0.4491599950954471	-0.208282357781636	1.5851157456932816	-0.5464621006477501	-0.1928781326095453	1.5833612364396699	-0.5315549901396907	-0.18913842744403092	1.5918248455800341	-0.5316686431141493	-0.20265804162838272	1.572703508104972	-0.5463082002420341	-0.22376622130598545	1.9883434400077766	-0.39990776102197717	-0.21096041690718423	2.0426093051541057	-0.49058455893956204	-0.2416764185586815	1.9887514907943695	-0.4064007123647991	-0.23088459613598875	1.9434526425340781	-0.5242046050790626	-0.21378179803069775	1.9992338681324056	-0.5422632726833212	-2.158449107000115	1.9064559291626908	1.8746765057825974	-0.18660774981259032	1.9140572766340207	-0.35349936963663325	-0.18301264710405765	1.8764445967480523	-0.4843347020307988
42	1.4	-0.2201622853820958	1.8343622217891038	-0.3798466588698048	-0.24191084358591788	1.8337017049080488	-0.3823727198145834																-0.20056027674388832	1.8392265987554128	-0.3845108370144323	-0.2076000767995488	1.7243928323442168	-0.4353126973157896	-0.208282357781636	1.5851157456932816	-0.5464621006477501	-0.1928781326095453	1.5833612364396699	-0.5315549901396907	-0.18913842744403092	1.5918248455800341	-0.5316686431141493	-0.20265804162838272	1.572703508104972	-0.5463082002420341	-2.0512429518667603	1.9017882974304952	1.7037902065138049	-0.2091676236838166	2.0420021017396905	-0.4927153967395755	-0.24064414701136266	1.9900328687303797	-0.41177063688563187	-0.2336364734580982	1.9318626962429601	-0.512084672666166	-1.648361625858053	1.8884117967536296	1.017181219545171	-0.20611296931537373	1.9841088286494435	-0.3842365081176089	-0.19165406467420792	1.9101778718064992	-0.35224562319184965	-0.18150689684128343	1.888937516688608	-0.47850057628527515
43	1.4333333333333333	-0.21817465378184805	1.8335699206990157	-0.38191931862388995	-0.2389794839318262	1.832663171608013	-0.3899310052502834																-0.19924507159205662	1.8337323799014031	-0.3717464536281384	-0.2076889464768938	1.7239627068852035	-0.42146539953613216	-0.208282357781636	1.5851157456932816	-0.5464621006477501	-0.1928781326095453	1.5833612364396699	-0.5315549901396907	-0.18913842744403092	1.5918248455800341	-0.5316686431141493	-0.20265804162838272	1.572703508104972	-0.5463082002420341	-0.22273398120643187	1.9830006651283236	-0.3953574234050906	-0.2111894125119581	2.04097517792093	-0.49075743351642953	-0.23876705974315365	1.9877153199316495	-0.4134631730267005	-0.23568251464527554	1.921781627516801	-0.4818061604867846	-0.21348998879025108	1.9568556459380022	-0.5694649930825761	-0.20415379040824702	1.9816530955019778	-0.3852830955034833	-0.1815095516604022	1.9158919019888352	-0.3636121622907772	-0.4555307757873496	1.8895393037779193	-0.17833298257104785
44	1.4666666666666666	-0.21608002761827708	1.8345097618508586	-0.38466880564153794	-0.23713047648099764	1.8326378402173877	-0.3925615168320891																-0.19631800808859912	1.8377365681436821	-0.3802900189104	-0.2077778161542388	1.72353258142619	-0.40761810175647467	-0.208282357781636	1.5851157456932816	-0.5464621006477501	-0.1928781326095453	1.5833612364396699	-0.5315549901396907	-0.18913842744403092	1.5918248455800341	-0.5316686431141493	-0.20265804162838272	1.572703508104972	-0.5463082002420341	-0.22275853084381037	1.9810520202303503	-0.3948637563517713	-0.211238863175089	2.0407037639477656	-0.4907210018149399	-0.23875390992189513	1.9863107787555785	-0.4131058354480841	-0.2475881132431037	1.915747652929924	-0.4416596471153401	-0.21482483531675522	1.9199419910596707	-0.5559685694354732	-0.20492824259936454	1.9805426506765837	-0.3795353915502417	-0.17782594547948238	1.9181987687775899	-0.36686311831870483	-0.7295546547334157	1.8901410908672307	0.12183461114317945
45	1.5	-0.21636797564649982	1.832587455072955	-0.38427603685714345	-0.23739470827748313	1.8294113031709538	-0.39201674181567775																-0.19460919947227556	1.8349505920481293	-0.38180555961579077	-0.20786668583158377	1.7231024559671764	-0.3937708039768172	-0.208282357781636	1.5851157456932816	-0.5464621006477501	-0.1928781326095453	1.5833612364396699	-0.5315549901396907	-0.18913842744403092	1.5918248455800341	-0.5316686431141493	-0.20265804162838272	1.572703508104972	-0.5463082002420341	-0.22094901663034322	1.981945781260693	-0.39761655686143876	-0.21323319097713167	2.0405862479914334	-0.48853768337609826	-0.2408277756062504	1.9862894110478808	-0.4113191940202527	-0.24190088702219592	1.9124315325042487	-0.43924679502165037	-0.2021740348157942	1.8963999515629861	-0.5546850799368498	-0.20039056233299904	1.9806254403983217	-0.38991316196686965	-0.17414233929856254	1.9205056355663443	-0.37011407434663246	-1.003578533679482	1.890742877956542	0.42200220485740675
46	1.5333333333333334	-0.21628936923490463	1.8343036380299982	-0.3843935416892843	-0.2373226503922504	1.8311873491783854	-0.39212122807289834																-0.19531176698206348	1.836059278192042	-0.37657598616881754	-0.2100173475087252	1.7240977077176847	-0.39146322966147806	-0.208282357781636	1.5851157456932816	-0.5464621006477501	-0.1928781326095453	1.5833612364396699	-0.5315549901396907	-0.18913842744403092	1.5918248455800341	-0.5316686431141493	-0.20265804162838272	1.572703508104972	-0.5463082002420341	-0.21535978917395623	1.9849457119629097	-0.40495539634728306	-0.21523149888666346	2.040242777080973	-0.4862896855021192	-0.2397901688567749	1.9886590452630664	-0.40856392100392486	-0.24496248810196508	1.9143669024014214	-0.4318649572115982	-0.2116793491260092	1.8783043453878918	-0.5378096305376668	-0.1946944827931775	1.9858874621823723	-0.39803006966132465	-0.17045873311764273	1.922812502355099	-0.37336503037456015	-1.277602412625548	1.8913446650458534	0.722169798571634
47	1.5666666666666667	-0.21819002103132334	1.8345629426343353	-0.3822327282868757	-0.23925968119665494	1.831349661569924	-0.3898686692661015																-0.19635396349241802	1.8366705629439277	-0.37986227446962856	-0.2121680091858666	1.725092959468193	-0.3891556553461389	-0.208282357781636	1.5851157456932816	-0.5464621006477501	-0.1928781326095453	1.5833612364396699	-0.5315549901396907	-0.18913842744403092	1.5918248455800341	-0.5316686431141493	-0.20265804162838272	1.572703508104972	-0.5463082002420341	-0.2160396616036343	1.9885425990765566	-0.4000217499669013	-0.21540662495152033	2.0391267622893774	-0.48622702690371383	-0.24140239999708688	1.990878722	-0.3981923189589242	-0.24942689426429612	1.9158569863766814	-0.430749130791059	-0.22214355987611117	1.8684914730645816	-0.5252148738564466	-0.19172140170727817	1.9870500683916033	-0.3969905004834213	-0.16677512693672292	1.9251193691438537	-0.3766159864024878	-1.5516262915716144	1.8919464521351648	1.0223373922858612
48	1.6	-0.21990688471362996	1.834634160707658	-0.3800946130052295	-0.2409751985369571	1.8315072484261146	-0.3876908350847653																-0.1972425570125648	1.8358866095486075	-0.37433965136938174	-0.21431867086300802	1.7260882112187015	-0.3868480810307997	-0.208282357781636	1.5851157456932816	-0.5464621006477501	-0.1928781326095453	1.5833612364396699	-0.5315549901396907	-0.18913842744403092	1.5918248455800341	-0.5316686431141493	-0.20265804162838272	1.572703508104972	-0.5463082002420341	-2.07988982871867	1.9039910068855483	1.7529103439133975	-0.21735752655818155	2.0387410405814927	-0.4839573408795565	-0.24200177654791782	1.9902631858392463	-0.3840832453702243	-0.25225120129890993	1.9152907334206855	-0.431606031817011	-0.23117327134163193	1.8533067972277757	-0.5093036329258116	-0.19747594255040798	1.9881053233104058	-0.39069470515022175	-0.1655000567044601	1.9294936657719375	-0.3778370431301995	-1.8256501705176804	1.8925482392244761	1.3225049860000886
49	1.6333333333333333	-0.2210053988816633	1.8339817855097116	-0.37411516381462395	-0.24389833377768977	1.8313682534561684	-0.3797009631546989																-0.20009884799134234	1.8343465265844212	-0.36601930899784396	-0.21646933254014944	1.7270834629692098	-0.3845405067154606	-0.208282357781636	1.5851157456932816	-0.5464621006477501	-0.1928781326095453	1.5833612364396699	-0.5315549901396907	-0.18913842744403092	1.5918248455800341	-0.5316686431141493	-0.20265804162838272	1.572703508104972	-0.5463082002420341	-2.105154665045043	1.9042409235411413	1.7972786020174327	-0.21432739955825567	2.034859378364757	-0.48157428829765275	-0.2439977996577436	1.9892068570562518	-0.3819851309956028	-0.25110360999207587	1.9133766774327143	-0.42790509425918655	-0.23878794483819296	1.8438292018264413	-0.4898031794349825	-0.19835391582040665	1.9850733406833823	-0.3758717359968181	-0.1642249864721973	1.9338679624000212	-0.3790580998579113	-1.8256501705176804	1.8925482392244761	1.3225049860000886
